<svg width="24" height="25" viewBox="0 0 24 25" fill="none" xmlns="http://www.w3.org/2000/svg">
<path d="M21 4.67969H3C2.60218 4.67969 2.22064 4.83772 1.93934 5.11903C1.65804 5.40033 1.5 5.78186 1.5 6.17969V18.1797C1.5 18.5775 1.65804 18.959 1.93934 19.2403C2.22064 19.5217 2.60218 19.6797 3 19.6797H21C21.3978 19.6797 21.7794 19.5217 22.0607 19.2403C22.342 18.959 22.5 18.5775 22.5 18.1797V6.17969C22.5 5.78186 22.342 5.40033 22.0607 5.11903C21.7794 4.83772 21.3978 4.67969 21 4.67969ZM19.35 6.17969L12 11.2647L4.65 6.17969H19.35ZM3 18.1797V6.86219L11.5725 12.7947C11.698 12.8818 11.8472 12.9285 12 12.9285C12.1528 12.9285 12.302 12.8818 12.4275 12.7947L21 6.86219V18.1797H3Z" fill="#FAF9F5"/>
</svg>
