<svg width="24" height="25" viewBox="0 0 24 25" fill="none" xmlns="http://www.w3.org/2000/svg">
<path d="M0.857143 21.6083V2.75115C0.857143 2.29649 1.03776 1.86046 1.35925 1.53897C1.68074 1.21748 2.11677 1.03687 2.57143 1.03687H21.4286C21.8832 1.03687 22.3193 1.21748 22.6408 1.53897C22.9622 1.86046 23.1429 2.29649 23.1429 2.75115V21.6083C23.1429 22.063 22.9622 22.499 22.6408 22.8205C22.3193 23.142 21.8832 23.3226 21.4286 23.3226H16.2857V15.1969H17.5029C17.7802 15.1969 18.0462 15.0867 18.2423 14.8906C18.4384 14.6945 18.5486 14.4285 18.5486 14.1512V12.8312C18.5486 12.5538 18.4384 12.2878 18.2423 12.0917C18.0462 11.8956 17.7802 11.7854 17.5029 11.7854H16.3543V10.174C16.3543 8.73401 17.0057 8.73401 17.6571 8.73401H18.4971C18.6351 8.73969 18.7726 8.715 18.9 8.66168C19.0274 8.60836 19.1415 8.52771 19.2343 8.42544C19.3339 8.33059 19.4128 8.21611 19.4659 8.08923C19.519 7.96235 19.5452 7.82582 19.5429 7.68829V6.41972C19.5474 6.28013 19.5245 6.141 19.4752 6.01029C19.426 5.87959 19.3515 5.75986 19.256 5.65797C19.1604 5.55608 19.0458 5.47401 18.9185 5.41646C18.7912 5.35891 18.6539 5.32701 18.5143 5.32258H16.5429C15.9676 5.30095 15.3946 5.40446 14.8632 5.62593C14.3319 5.84741 13.855 6.18159 13.4654 6.60538C13.0759 7.02918 12.7829 7.53249 12.6069 8.08054C12.4308 8.6286 12.3758 9.20834 12.4457 9.77972V11.7854H11.3486C11.2098 11.7832 11.072 11.8085 10.9431 11.8601C10.8143 11.9116 10.697 11.9883 10.598 12.0856C10.4991 12.1829 10.4205 12.299 10.3669 12.427C10.3133 12.555 10.2857 12.6924 10.2857 12.8312V14.1512C10.2857 14.2899 10.3133 14.4273 10.3669 14.5553C10.4205 14.6833 10.4991 14.7994 10.598 14.8967C10.697 14.994 10.8143 15.0707 10.9431 15.1222C11.072 15.1738 11.2098 15.1991 11.3486 15.1969H12.4457V23.3226H2.57143C2.11677 23.3226 1.68074 23.142 1.35925 22.8205C1.03776 22.499 0.857143 22.063 0.857143 21.6083Z" stroke="white" stroke-linecap="round" stroke-linejoin="round"/>
</svg>
