<svg width="24" height="25" viewBox="0 0 24 25" fill="none" xmlns="http://www.w3.org/2000/svg">
<path d="M16 7.17969C16 6.91447 16.1054 6.66012 16.2929 6.47258C16.4804 6.28504 16.7348 6.17969 17 6.17969C17.2652 6.17969 17.5196 6.28504 17.7071 6.47258C17.8946 6.66012 18 6.91447 18 7.17969C18 7.4449 17.8946 7.69926 17.7071 7.88679C17.5196 8.07433 17.2652 8.17969 17 8.17969C16.7348 8.17969 16.4804 8.07433 16.2929 7.88679C16.1054 7.69926 16 7.4449 16 7.17969Z" fill="white"/>
<path fill-rule="evenodd" clip-rule="evenodd" d="M12 7.42969C10.7402 7.42969 9.53204 7.93013 8.64124 8.82093C7.75045 9.71173 7.25 10.9199 7.25 12.1797C7.25 13.4395 7.75045 14.6476 8.64124 15.5384C9.53204 16.4292 10.7402 16.9297 12 16.9297C13.2598 16.9297 14.468 16.4292 15.3588 15.5384C16.2496 14.6476 16.75 13.4395 16.75 12.1797C16.75 10.9199 16.2496 9.71173 15.3588 8.82093C14.468 7.93013 13.2598 7.42969 12 7.42969ZM8.75 12.1797C8.75 11.3177 9.09241 10.4911 9.7019 9.88159C10.3114 9.2721 11.138 8.92969 12 8.92969C12.862 8.92969 13.6886 9.2721 14.2981 9.88159C14.9076 10.4911 15.25 11.3177 15.25 12.1797C15.25 13.0416 14.9076 13.8683 14.2981 14.4778C13.6886 15.0873 12.862 15.4297 12 15.4297C11.138 15.4297 10.3114 15.0873 9.7019 14.4778C9.09241 13.8683 8.75 13.0416 8.75 12.1797Z" fill="white"/>
<path fill-rule="evenodd" clip-rule="evenodd" d="M17.258 3.01272C13.7634 2.62532 10.2366 2.62532 6.742 3.01272C4.73 3.23772 3.105 4.82272 2.869 6.84472C2.4544 10.3893 2.4544 13.9701 2.869 17.5147C3.105 19.5367 4.729 21.1217 6.742 21.3467C10.2367 21.7337 13.7633 21.7337 17.258 21.3467C19.27 21.1217 20.895 19.5367 21.131 17.5147C21.5457 13.9701 21.5457 10.3893 21.131 6.84472C20.895 4.82272 19.271 3.23772 17.258 3.01272ZM6.908 4.50272C10.2923 4.12759 13.7077 4.12759 17.092 4.50272C18.422 4.65272 19.487 5.70172 19.642 7.01972C20.043 10.448 20.043 13.9114 19.642 17.3397C19.5618 17.9848 19.2665 18.5839 18.8038 19.0405C18.3411 19.497 17.7381 19.7842 17.092 19.8557C13.7077 20.2309 10.2923 20.2309 6.908 19.8557C6.26194 19.7842 5.65885 19.497 5.19616 19.0405C4.73346 18.5839 4.43818 17.9848 4.358 17.3397C3.95705 13.9114 3.95705 10.448 4.358 7.01972C4.43818 6.37468 4.73346 5.7755 5.19616 5.31897C5.65885 4.86244 6.26194 4.57423 6.908 4.50272Z" fill="white"/>
</svg>
